<svg width="1147" height="513" viewBox="0 0 1147 513" fill="none" xmlns="http://www.w3.org/2000/svg">
<path d="M0.769531 507V6.36035H110.044L167.999 361.766L221.763 6.36035H331.038V507H256.675V148.104L202.212 507H127.85L69.1973 152.991V507H0.769531ZM357.696 507L437.645 6.36035H552.854L632.803 507H553.553L539.937 416.229H443.23L429.615 507H357.696ZM453.355 348.15H529.114L491.409 95.0371L453.355 348.15ZM659.461 507V6.36035H775.369C814.238 6.36035 843.448 16.9504 862.999 38.1304C882.782 59.3104 892.674 90.033 892.674 130.298V195.235C892.674 235.5 882.782 266.223 862.999 287.403C843.448 308.35 814.238 318.824 775.369 318.824H738.013V507H659.461ZM738.013 247.603H775.369C788.403 247.603 798.062 243.995 804.346 236.78C810.63 229.565 813.772 217.346 813.772 200.123V125.062C813.772 107.838 810.63 95.7354 804.346 88.7529C798.062 81.5378 788.403 77.9302 775.369 77.9302H738.013V247.603ZM912.349 386.902V126.458C912.349 86.1927 922.357 55.2373 942.374 33.5918C962.39 11.7135 991.483 0.774414 1029.65 0.774414C1067.82 0.774414 1096.92 11.7135 1116.93 33.5918C1136.95 55.2373 1146.96 86.1927 1146.96 126.458V175.335H1072.6V121.57C1072.6 88.7529 1059.1 72.3442 1032.1 72.3442C1004.87 72.3442 991.25 88.7529 991.25 121.57V391.79C991.25 424.375 1004.87 440.667 1032.1 440.667C1059.1 440.667 1072.6 424.375 1072.6 391.79V320.22H1146.96V386.902C1146.96 427.168 1136.95 458.239 1116.93 480.118C1096.92 501.763 1067.82 512.586 1029.65 512.586C991.483 512.586 962.39 501.763 942.374 480.118C922.357 458.239 912.349 427.168 912.349 386.902Z" fill="#fff"/>
</svg>
